<?xml version="1.0" encoding="UTF-8" standalone="no"?>
<!-- Generator: Adobe Illustrator 16.0.0, SVG Export Plug-In . SVG Version: 6.00 Build 0)  -->

<svg
   xmlns:dc="http://purl.org/dc/elements/1.1/"
   xmlns:cc="http://creativecommons.org/ns#"
   xmlns:rdf="http://www.w3.org/1999/02/22-rdf-syntax-ns#"
   xmlns:svg="http://www.w3.org/2000/svg"
   xmlns="http://www.w3.org/2000/svg"
   xmlns:sodipodi="http://sodipodi.sourceforge.net/DTD/sodipodi-0.dtd"
   xmlns:inkscape="http://www.inkscape.org/namespaces/inkscape"
   version="1.1"
   id="Layer_1"
   x="0px"
   y="0px"
   width="140.715"
   height="145.082"
   viewBox="0 0 140.715 145.082"
   enable-background="new 0 0 612 366"
   xml:space="preserve"
   sodipodi:docname="CYLogoSimple.svg"
   inkscape:version="0.92.4 (5da689c313, 2019-01-14)"><metadata
   id="metadata31"><rdf:RDF><cc:Work
       rdf:about=""><dc:format>image/svg+xml</dc:format><dc:type
         rdf:resource="http://purl.org/dc/dcmitype/StillImage" /><dc:title /></cc:Work></rdf:RDF></metadata><defs
   id="defs29" /><sodipodi:namedview
   pagecolor="#ffffff"
   bordercolor="#666666"
   borderopacity="1"
   objecttolerance="10"
   gridtolerance="10"
   guidetolerance="10"
   inkscape:pageopacity="0"
   inkscape:pageshadow="2"
   inkscape:window-width="1920"
   inkscape:window-height="1017"
   id="namedview27"
   showgrid="false"
   inkscape:zoom="1.1584699"
   inkscape:cx="112.32596"
   inkscape:cy="48.03581"
   inkscape:window-x="-8"
   inkscape:window-y="-8"
   inkscape:window-maximized="1"
   inkscape:current-layer="g24" />
<text
   transform="scale(0.96633328,1.0348397)"
   id="text18"
   style="font-style:normal;font-variant:normal;font-weight:normal;font-stretch:normal;font-size:11.59599972px;font-family:'Crimson Text';-inkscape-font-specification:'Crimson Text';stroke-width:0.96633327"
   inkscape:export-xdpi="96"
   inkscape:export-ydpi="96"
   x="99.517838"
   y="64.49337"><tspan
     x="99.517838"
     y="64.49337"
     font-size="29.5353"
     id="tspan10"
     style="font-style:normal;font-variant:normal;font-weight:normal;font-stretch:normal;font-size:28.54094315px;font-family:'Crimson Text';-inkscape-font-specification:'Crimson Text';fill:#7b6569;stroke-width:0.96633327" /></text>


<g
   id="g24"
   transform="translate(-127.691,-98.58)">
	<path
   d="m 242.536,136.959 h -1.329 c -0.99,-5.382 -3.632,-9.941 -7.931,-13.678 -4.302,-3.736 -9.238,-6.465 -14.813,-8.184 -5.576,-1.721 -10.788,-2.578 -15.631,-2.578 -6.619,0 -12.833,1.334 -18.645,3.996 -5.809,2.668 -10.823,6.43 -15.043,11.287 -4.221,4.859 -7.503,10.686 -9.846,17.488 -2.346,6.801 -3.521,14.188 -3.521,22.158 0,7.723 1.136,14.884 3.4,21.484 2.267,6.604 5.576,12.333 9.927,17.191 4.35,4.856 9.392,8.53 15.124,11.022 5.733,2.494 12.089,3.738 19.071,3.738 5.835,0 12.244,-1.135 19.229,-3.402 6.982,-2.269 13.286,-6.041 18.914,-11.322 v 4.26 c -6.931,5.131 -13.275,8.895 -19.033,11.285 -5.756,2.391 -12.936,3.586 -21.533,3.586 -9.067,0 -17.339,-1.584 -24.815,-4.744 -7.479,-3.161 -13.794,-7.436 -18.956,-12.816 -5.158,-5.381 -9.065,-11.436 -11.724,-18.162 -2.656,-6.727 -3.984,-13.649 -3.984,-20.772 0,-10.715 2.76,-20.668 8.284,-29.858 5.522,-9.191 13,-16.465 22.433,-21.823 9.427,-5.354 19.668,-8.033 30.717,-8.033 6.826,0 14.094,0.973 21.804,2.914 l 8.132,2.167 c 1.562,0.3 2.894,0.45 3.988,0.45 2.031,0 3.386,-0.287 4.062,-0.861 0.676,-0.572 1.197,-1.605 1.562,-3.104 h 1.254 z"
   id="path20"
   inkscape:export-xdpi="96"
   inkscape:export-ydpi="96"
   inkscape:connector-curvature="0"
   style="fill:#b8dbd2" />
	<path
   d="m 268.406,98.58 v 1.674 c -4.533,0.066 -8.565,1.084 -12.103,3.054 -3.538,1.97 -6.3,4.022 -8.292,6.157 -1.995,2.133 -4.122,4.713 -6.387,7.73 l -35.438,51.02 v 58.11 c 0,5.189 1.632,9.08 4.894,11.674 3.261,2.594 7.195,3.955 11.795,4.086 v 1.577 h -48.107 v -1.577 c 4.877,-0.131 8.739,-1.46 11.587,-3.988 2.851,-2.526 4.276,-6.451 4.276,-11.771 v -55.647 l -38.628,-55.354 c -4.122,-5.974 -7.812,-9.949 -11.075,-11.918 -3.262,-1.971 -7.674,-3.02 -13.237,-3.152 V 98.58 h 53.875 v 1.674 c -5.495,0.198 -9.014,1.33 -10.558,3.398 -1.547,2.068 -2.319,4.023 -2.319,5.861 0,2.102 1.339,5.055 4.019,8.865 l 31.623,44.814 28.02,-40.385 c 4.26,-6.04 6.387,-10.67 6.387,-13.887 0,-2.231 -0.566,-3.973 -1.699,-5.22 -1.134,-1.245 -2.282,-2.069 -3.452,-2.463 -1.167,-0.395 -2.403,-0.724 -3.708,-0.985 V 98.58 Z"
   id="path22"
   inkscape:export-xdpi="96"
   inkscape:export-ydpi="96"
   inkscape:connector-curvature="0"
   style="fill:#cec5a6" />
</g>
</svg>